<svg
    role="img"
    width="230"
    height="400"
    viewBox="0 0 230 400"
    preserveAspectRatio="none"
    version="1.1" xmlns="http://www.w3.org/2000/svg">
    <title id="loading-aria">Loading...</title>
    <rect
        x="0"
        y="0"
        width="100%"
        height="100%"
        clip-path="url(#clip-path)"
        style='fill: url("#fill");'
    ></rect>
    <defs>
        <clipPath id="clip-path">
            <rect x="0" y="0" rx="5" ry="5" width="230" height="28" />
            <rect x="0" y="39" rx="5" ry="5" width="180" height="20" />
            <rect x="0" y="69" rx="5" ry="5" width="18" height="18" />
            <rect x="0" y="97" rx="5" ry="5" width="18" height="18" />
            <rect x="0" y="125" rx="5" ry="5" width="18" height="18" />
            <rect x="0" y="153" rx="5" ry="5" width="18" height="18" />
            <rect x="0" y="181" rx="5" ry="5" width="18" height="18" />
            <rect x="25" y="70" rx="5" ry="5" width="120" height="16" />
            <rect x="25" y="98" rx="5" ry="5" width="120" height="16" />
            <rect x="25" y="126" rx="5" ry="5" width="120" height="16" />
            <rect x="25" y="154" rx="5" ry="5" width="120" height="16" />
            <rect x="25" y="182" rx="5" ry="5" width="120" height="16" />
            <rect x="0" y="229" rx="5" ry="5" width="180" height="20" />
            <rect x="0" y="214" rx="0" ry="0" width="230" height="1" />
            <rect x="0" y="259" rx="5" ry="5" width="18" height="18" />
            <rect x="0" y="287" rx="5" ry="5" width="18" height="18" />
            <rect x="0" y="315" rx="5" ry="5" width="18" height="18" />
            <rect x="0" y="343" rx="5" ry="5" width="18" height="18" />
            <rect x="0" y="371" rx="5" ry="5" width="18" height="18" />
            <rect x="25" y="260" rx="5" ry="5" width="120" height="16" />
            <rect x="25" y="288" rx="5" ry="5" width="120" height="16" />
            <rect x="25" y="316" rx="5" ry="5" width="120" height="16" />
            <rect x="25" y="344" rx="5" ry="5" width="120" height="16" />
            <rect x="25" y="372" rx="5" ry="5" width="120" height="16" />
        </clipPath>
        <linearGradient id="fill">
            <stop
                offset="0.599964"
                stop-color="#f7f7f7"
                stop-opacity="1"
            >
                <animate
                    attributeName="offset"
                    values="-2; -2; 1"
                    keyTimes="0; 0.25; 1"
                    dur="2s"
                    repeatCount="indefinite"
                ></animate>
            </stop>
            <stop
                offset="1.59996"
                stop-color="#e5e5e5"
                stop-opacity="1"
            >
                <animate
                    attributeName="offset"
                    values="-1; -1; 2"
                    keyTimes="0; 0.25; 1"
                    dur="2s"
                    repeatCount="indefinite"
                ></animate>
            </stop>
            <stop
                offset="2.59996"
                stop-color="#f7f7f7"
                stop-opacity="1"
            >
                <animate
                    attributeName="offset"
                    values="0; 0; 3"
                    keyTimes="0; 0.25; 1"
                    dur="2s"
                    repeatCount="indefinite"
                ></animate>
            </stop>
        </linearGradient>
    </defs>
</svg>
